<?xml version="1.0" standalone="no"?><svg xmlns:xlink="http://www.w3.org/1999/xlink" xmlns="http://www.w3.org/2000/svg" viewBox="0 0 1000 600.0041921690282" preserveAspectRatio="xMaxYMax slice"><g transform="scale(1.310052821329756)"><rect x="0" y="0" width="763.3333333333333" height="458" fill="#ffffff"/><rect x="0" y="0" width="76.33" height="76.33" fill="#3ae6d3"/><rect x="0" y="0" width="76.33" height="76.33" fill="#b5f6ee"/><rect x="76.33" y="0" width="76.33" height="76.33" fill="#89f0e5"/><path d="M 76.33 76.33 A 76.33 76.33 0 0 1  152.66 0 L 76.33 76.33 A 76.33 76.33 0 0 0 152.66 0" fill="#4de0f1"/><rect x="152.67" y="0" width="76.33" height="76.33" fill="#50e9d8"/><path d="M 152.67 0 A 76.33 76.33 0 0 0 229 76.33 L 229 0" fill="#effcfe"/><rect x="229" y="0" width="76.33" height="76.33" fill="#d3faf5"/><polygon points="229,0 305.33,76.33 229,76.33" fill="#a0eef7"/><rect x="305.33" y="0" width="76.33" height="76.33" fill="#edfdfb"/><polygon points="305.33,0 381.65999999999997,0 381.65999999999997,76.33" fill="#32e5d1"/><rect x="381.67" y="0" width="76.33" height="76.33" fill="#c6f5fa"/><polygon points="381.67,0 458,0 381.67,76.33" fill="#82efe3"/><rect x="458" y="0" width="76.33" height="76.33" fill="#2ae4cf"/><polygon points="534.33,0 534.33,76.33 458,76.33" fill="#8aebf6"/><rect x="534.33" y="0" width="76.33" height="76.33" fill="#ebfdfb"/><polygon points="534.33,0 610.6600000000001,76.33 534.33,76.33" fill="#c2f7f1"/><rect x="610.67" y="0" width="76.33" height="76.33" fill="#a1eff8"/><rect x="610.67" y="0" width="76.33" height="76.33" fill="#bef4fa"/><rect x="687" y="0" width="76.33" height="76.33" fill="#2ae4cf"/><polygon points="687,0 763.33,76.33 687,76.33" fill="#81efe3"/><rect x="0" y="76.33" width="76.33" height="76.33" fill="#24e4ce"/><rect x="0" y="76.33" width="76.33" height="76.33" fill="#5ee3f2"/><rect x="76.33" y="76.33" width="76.33" height="76.33" fill="#6becde"/><path d="M 76.33 152.66 A 76.33 76.33 0 0 1  152.66 76.33 L 76.33 152.66 A 76.33 76.33 0 0 0 152.66 76.33" fill="#6de6f3"/><rect x="152.67" y="76.33" width="76.33" height="76.33" fill="#8bebf6"/><polygon points="152.67,76.33 229,76.33 152.67,152.66" fill="#46e8d5"/><rect x="229" y="76.33" width="76.33" height="76.33" fill="#bef4fa"/><polygon points="229,76.33 305.33,152.66 229,152.66" fill="#a4f4ea"/><rect x="305.33" y="76.33" width="76.33" height="76.33" fill="#9ff3e9"/><polygon points="305.33,76.33 381.65999999999997,76.33 381.65999999999997,152.66" fill="#cff9f4"/><rect x="381.67" y="76.33" width="76.33" height="76.33" fill="#94f2e7"/><polygon points="381.67,76.33 458,76.33 458,152.66" fill="#6cedde"/><rect x="458" y="76.33" width="76.33" height="76.33" fill="#1fe3cc"/><path d="M 458 152.66 A 76.33 76.33 0 0 0 534.33 76.33 L 458 76.33" fill="#d3f7fb"/><rect x="534.33" y="76.33" width="76.33" height="76.33" fill="#60e3f2"/><polygon points="534.33,76.33 610.6600000000001,76.33 610.6600000000001,152.66" fill="#d8f8fc"/><rect x="610.67" y="76.33" width="76.33" height="76.33" fill="#92f1e7"/><rect x="610.67" y="76.33" width="76.33" height="76.33" fill="#95f2e7"/><rect x="687" y="76.33" width="76.33" height="76.33" fill="#3fe7d4"/><path d="M 687 76.33 A 76.33 76.33 0 0 0 763.33 152.66 L 763.33 76.33" fill="#f6fefd"/><rect x="0" y="152.67" width="76.33" height="76.33" fill="#c6f5fa"/><path d="M 0 152.67 A 76.33 76.33 0 0 0 76.33 229 L 76.33 152.67" fill="#27e4ce"/><rect x="76.33" y="152.67" width="76.33" height="76.33" fill="#9bf2e8"/><rect x="76.33" y="152.67" width="76.33" height="76.33" fill="#c4f5fa"/><rect x="152.67" y="152.67" width="76.33" height="76.33" fill="#83efe3"/><polygon points="152.67,152.67 229,152.67 229,229" fill="#18e2cb"/><rect x="229" y="152.67" width="76.33" height="76.33" fill="#9aedf7"/><rect x="229" y="152.67" width="76.33" height="76.33" fill="#f6fefd"/><rect x="305.33" y="152.67" width="76.33" height="76.33" fill="#29e4cf"/><rect x="305.33" y="152.67" width="76.33" height="76.33" fill="#4fe0f1"/><rect x="381.67" y="152.67" width="76.33" height="76.33" fill="#4de0f1"/><rect x="381.67" y="152.67" width="76.33" height="76.33" fill="#7fefe2"/><rect x="458" y="152.67" width="76.33" height="76.33" fill="#61e3f2"/><path d="M 458 152.67 A 76.33 76.33 0 0 0 534.33 229 L 534.33 152.67" fill="#75e7f4"/><rect x="534.33" y="152.67" width="76.33" height="76.33" fill="#f6fdfe"/><path d="M 534.33 229 A 76.33 76.33 0 0 0 610.6600000000001 152.67 L 534.33 152.67" fill="#caf8f3"/><rect x="610.67" y="152.67" width="76.33" height="76.33" fill="#69e5f3"/><path d="M 610.67 152.67 A 76.33 76.33 0 0 0 687 229 L 687 152.67" fill="#adf5ec"/><rect x="687" y="152.67" width="76.33" height="76.33" fill="#dbfbf7"/><rect x="687" y="152.67" width="76.33" height="76.33" fill="#69e5f3"/><rect x="0" y="229" width="76.33" height="76.33" fill="#b0f1f9"/><rect x="0" y="229" width="76.33" height="76.33" fill="#b0f1f9"/><rect x="76.33" y="229" width="76.33" height="76.33" fill="#96f2e7"/><polygon points="76.33,229 152.66,229 76.33,305.33" fill="#c4f5fa"/><rect x="152.67" y="229" width="76.33" height="76.33" fill="#61ebdb"/><path d="M 152.67 229 A 76.33 76.33 0 0 1 229 305.33 L 152.67 305.33" fill="#5fe3f2"/><rect x="229" y="229" width="76.33" height="76.33" fill="#69ecdd"/><path d="M 229 229 A 76.33 76.33 0 0 1  305.33 305.33 L 229 229 A 76.33 76.33 0 0 0 305.33 305.33" fill="#7beee1"/><rect x="305.33" y="229" width="76.33" height="76.33" fill="#54ead9"/><path d="M 305.33 229 A 76.33 76.33 0 0 0 381.65999999999997 305.33 L 381.65999999999997 229" fill="#bbf3fa"/><rect x="381.67" y="229" width="76.33" height="76.33" fill="#9cf3e9"/><rect x="381.67" y="229" width="76.33" height="76.33" fill="#d2f7fb"/><rect x="458" y="229" width="76.33" height="76.33" fill="#d7f8fc"/><rect x="458" y="229" width="76.33" height="76.33" fill="#edfdfb"/><rect x="534.33" y="229" width="76.33" height="76.33" fill="#bbf6f0"/><rect x="534.33" y="229" width="76.33" height="76.33" fill="#a5f4eb"/><rect x="610.67" y="229" width="76.33" height="76.33" fill="#58ead9"/><path d="M 610.67 305.33 A 76.33 76.33 0 0 0 687 229 L 610.67 229" fill="#99f2e8"/><rect x="687" y="229" width="76.33" height="76.33" fill="#7aeee1"/><polygon points="687,229 763.33,229 687,305.33" fill="#72e6f4"/><rect x="0" y="305.33" width="76.33" height="76.33" fill="#7eefe2"/><rect x="0" y="305.33" width="76.33" height="76.33" fill="#31e5d1"/><rect x="76.33" y="305.33" width="76.33" height="76.33" fill="#b5f2f9"/><rect x="76.33" y="305.33" width="76.33" height="76.33" fill="#9feef7"/><rect x="152.67" y="305.33" width="76.33" height="76.33" fill="#bbf3fa"/><path d="M 152.67 305.33 A 76.33 76.33 0 0 1  229 381.65999999999997 L 152.67 305.33 A 76.33 76.33 0 0 0 229 381.65999999999997" fill="#92f1e7"/><rect x="229" y="305.33" width="76.33" height="76.33" fill="#4ce9d7"/><rect x="229" y="305.33" width="76.33" height="76.33" fill="#f7fefe"/><rect x="305.33" y="305.33" width="76.33" height="76.33" fill="#a2eff8"/><polygon points="381.65999999999997,305.33 381.65999999999997,381.65999999999997 305.33,381.65999999999997" fill="#43e7d5"/><rect x="381.67" y="305.33" width="76.33" height="76.33" fill="#9cf3e9"/><rect x="381.67" y="305.33" width="76.33" height="76.33" fill="#9ceef7"/><rect x="458" y="305.33" width="76.33" height="76.33" fill="#6ce5f3"/><rect x="458" y="305.33" width="76.33" height="76.33" fill="#acf0f8"/><rect x="534.33" y="305.33" width="76.33" height="76.33" fill="#6eedde"/><polygon points="534.33,305.33 610.6600000000001,305.33 610.6600000000001,381.65999999999997" fill="#f6fdfe"/><rect x="610.67" y="305.33" width="76.33" height="76.33" fill="#fafeff"/><polygon points="610.67,305.33 687,381.65999999999997 610.67,381.65999999999997" fill="#d1f7fb"/><rect x="687" y="305.33" width="76.33" height="76.33" fill="#36e6d2"/><path d="M 687 305.33 A 76.33 76.33 0 0 1 763.33 381.65999999999997 L 687 381.65999999999997" fill="#83efe3"/><rect x="0" y="381.67" width="76.33" height="76.33" fill="#7defe2"/><polygon points="0,381.67 76.33,381.67 0,458" fill="#b1f1f9"/><rect x="76.33" y="381.67" width="76.33" height="76.33" fill="#9cf3e9"/><path d="M 76.33 381.67 A 76.33 76.33 0 0 1 152.66 458 L 76.33 458" fill="#dcfbf7"/><rect x="152.67" y="381.67" width="76.33" height="76.33" fill="#20e3cd"/><rect x="152.67" y="381.67" width="76.33" height="76.33" fill="#baf6f0"/><rect x="229" y="381.67" width="76.33" height="76.33" fill="#90f1e6"/><path d="M 229 458 A 76.33 76.33 0 0 0 305.33 381.67 L 229 381.67" fill="#69e5f3"/><rect x="305.33" y="381.67" width="76.33" height="76.33" fill="#b3f2f9"/><path d="M 305.33 381.67 A 76.33 76.33 0 0 1  381.65999999999997 458 L 305.33 381.67 A 76.33 76.33 0 0 0 381.65999999999997 458" fill="#93f1e7"/><rect x="381.67" y="381.67" width="76.33" height="76.33" fill="#77eee0"/><path d="M 381.67 458 A 76.33 76.33 0 0 1  458 381.67 L 381.67 458 A 76.33 76.33 0 0 0 458 381.67" fill="#32e5d1"/><rect x="458" y="381.67" width="76.33" height="76.33" fill="#5ee3f2"/><rect x="458" y="381.67" width="76.33" height="76.33" fill="#76e7f4"/><rect x="534.33" y="381.67" width="76.33" height="76.33" fill="#b7f6ef"/><rect x="534.33" y="381.67" width="76.33" height="76.33" fill="#93ecf6"/><rect x="610.67" y="381.67" width="76.33" height="76.33" fill="#92ecf6"/><path d="M 610.67 381.67 A 76.33 76.33 0 0 0 687 458 L 687 381.67" fill="#6ce5f3"/><rect x="687" y="381.67" width="76.33" height="76.33" fill="#33e5d1"/><polygon points="687,381.67 763.33,381.67 763.33,458" fill="#f9feff"/></g></svg>