<svg xmlns="http://www.w3.org/2000/svg" version="1.1" xmlns:xlink="http://www.w3.org/1999/xlink" xmlns:svgjs="http://svgjs.dev/svgjs" viewBox="0 0 1920 1080" style="overflow: hidden; height: 85vh;" class="overflow-hidden rounded-md drop-shadow-lg transition duration-300"><rect width="1920" height="1080" fill="#207567"/><g clip-path="url(&quot;#SvgjsClipPath1242&quot;)"><g transform="matrix(0.14014974491591983,-1.1414280743875203,1.1414280743875203,0.14014974491591983,189.7679844280217,1534.4471583692998)"><path d="M0,-1080C-4.053603984064864,-1013.5179525367918,-19.976137106379923,-823.8632573339647,-24.321623904389185,-681.1077152207505C-28.667110702398446,-538.3521731075363,-31.879766030894327,-355.90410894391425,-26.07292078805557,-223.46674732071457C-20.26607554521681,-91.0293856975149,10.963439221290251,-13.29615112440166,10.519447552643364,113.51645451844763C10.075455883996476,240.32906016129692,-27.340051607696402,393.7790055884112,-28.736870799936895,537.4088865363811C-30.133689992177388,681.0387674843511,3.866766981582149,838.5450339701492,2.1385323992004075,975.2957402062673C0.41029781681866595,1112.0464464423853,-32.00364915909931,1227.7435571566846,-39.106278294227344,1357.9131239530896C-46.20890742935538,1488.0826907494945,-46.99495546060568,1622.6319949768783,-40.477242411567794,1756.3131409846967C-33.959529362529906,1889.994286992515,-6.746207068594632,2092.718856830783,0,2160L 1920 2160 L 1920 -1080 Z" fill="url(&quot;#SvgjsLinearGradient1239&quot;)"/><path d="M640,-1080C636.7324665553607,-999.9762448472229,620.6273077985159,-761.9008398110744,620.3947993321644,-599.8574690833377C620.162290865813,-437.814098355601,629.4526761310714,-258.55920626348626,638.6049492018911,-107.73977563357948C647.7572222727109,43.07965499632729,672.7480807539786,155.531181810652,675.3084377570833,305.05911469610294C677.868794760188,454.58704758155386,652.0691694812275,637.1468343893141,653.9670912205195,789.4278216791263C655.8650129598115,941.7088089689385,693.8458370753498,1060.063337431162,686.6959681928349,1218.7450384349759C679.5460993103201,1377.4267394387898,618.850539290903,1584.6422007745066,611.0678779254306,1741.5180277020106C603.2852165599581,1898.3938546295146,635.1779796542385,2090.253004617002,640,2160L 1920 2160 L 1920 -1080 Z" fill="url(&quot;#SvgjsLinearGradient1240&quot;)"/><path d="M1280,-1080C1281.8349257903567,-1007.8652693120598,1292.7388787017987,-777.0009296651466,1291.00955474214,-647.1916158723586C1289.280230782481,-517.3823020795706,1266.9114632993073,-434.2773218944992,1269.624056242047,-301.1441172432721C1272.3366491847864,-168.010912592045,1306.805935189614,14.066865229342625,1307.2851123985777,151.607612035004C1307.7642896075413,289.14835884066537,1269.5626985078916,385.9666542507681,1272.4991194958288,524.1003635906961C1275.435540483766,662.2340729306242,1330.9014752259477,847.9629316127944,1324.9036383262007,980.4098680745719C1318.9058014264538,1112.8568045363495,1239.4917331049987,1193.908053602625,1236.512098097347,1318.7819823613615C1233.5324630896953,1443.6559111200982,1299.7778446298485,1589.4504376872187,1307.0258282802906,1729.6534406269918C1314.2738119307328,1869.856443566765,1284.5043047133818,2088.275573437832,1280,2160L 1920 2160 L 1920 -1080 Z" fill="url(&quot;#SvgjsLinearGradient1241&quot;)"/></g></g><defs><linearGradient x1="0.1" y1="0" x2="0" y2="1" id="SvgjsLinearGradient1239"><stop stop-color="#207567" offset="0"/><stop stop-color="#207559" offset="0"/></linearGradient><linearGradient x1="0.1" y1="0" x2="0" y2="1" id="SvgjsLinearGradient1240"><stop stop-color="#3ac9b1" offset="0"/><stop stop-color="#3ac999" offset="0.3333333333333333"/></linearGradient><linearGradient x1="0.1" y1="0" x2="0" y2="1" id="SvgjsLinearGradient1241"><stop stop-color="#90e1d3" offset="0"/><stop stop-color="#90e1c5" offset="0.6666666666666666"/></linearGradient><clipPath id="SvgjsClipPath1242"><rect width="1920" height="1080"/></clipPath></defs></svg>